<svg width="184" height="184" viewBox="0 0 184 184" fill="none" xmlns="http://www.w3.org/2000/svg">
<path d="M95.64 8.76835C93.6323 10.776 90.3851 10.776 88.3774 8.76835C86.3698 6.76067 86.3698 3.51345 88.3774 1.50576C90.3851 -0.501921 93.6323 -0.501921 95.64 1.50576C97.6303 3.49599 97.6303 6.76067 95.64 8.76835ZM117.358 23.2062C115.35 21.1985 112.103 21.1985 110.095 23.2062C108.088 25.2139 108.088 28.4611 110.095 30.4688C112.103 32.4765 115.35 32.4765 117.358 30.4688C119.348 28.4786 119.348 25.2139 117.358 23.2062ZM139.058 44.9241C137.051 42.9164 133.803 42.9164 131.796 44.9241C129.788 46.9318 129.788 50.179 131.796 52.1867C133.803 54.1944 137.051 54.1944 139.058 52.1867C141.066 50.179 141.066 46.9318 139.058 44.9241ZM160.776 66.642C158.769 64.6343 155.521 64.6343 153.514 66.642C151.506 68.6497 151.506 71.8969 153.514 73.9046C155.521 75.9123 158.769 75.9123 160.776 73.9046C162.784 71.8969 162.784 68.6497 160.776 66.642ZM182.494 88.3599C180.487 86.3522 177.239 86.3522 175.232 88.3599C173.224 90.3676 173.224 93.6149 175.232 95.6226C177.239 97.6302 180.487 97.6302 182.494 95.6226C184.502 93.6149 184.502 90.3676 182.494 88.3599ZM73.9221 23.2062C71.9144 21.1985 68.6672 21.1985 66.6595 23.2062C64.6518 25.2139 64.6518 28.4611 66.6595 30.4688C68.6672 32.4765 71.9144 32.4765 73.9221 30.4688C75.9298 28.4786 75.9298 25.2139 73.9221 23.2062ZM95.64 44.9241C93.6323 42.9164 90.3851 42.9164 88.3774 44.9241C86.3698 46.9318 86.3698 50.179 88.3774 52.1867C90.3851 54.1944 93.6323 54.1944 95.64 52.1867C97.6303 50.179 97.6303 46.9318 95.64 44.9241ZM117.358 66.642C115.35 64.6343 112.103 64.6343 110.095 66.642C108.088 68.6497 108.088 71.8969 110.095 73.9046C112.103 75.9123 115.35 75.9123 117.358 73.9046C119.348 71.8969 119.348 68.6497 117.358 66.642ZM139.058 88.3599C137.051 86.3522 133.803 86.3522 131.796 88.3599C129.788 90.3676 129.788 93.6149 131.796 95.6226C133.803 97.6302 137.051 97.6302 139.058 95.6226C141.066 93.6149 141.066 90.3676 139.058 88.3599ZM160.776 110.078C158.769 108.07 155.521 108.07 153.514 110.078C151.506 112.086 151.506 115.333 153.514 117.34C155.521 119.348 158.769 119.348 160.776 117.34C162.784 115.333 162.784 112.086 160.776 110.078ZM52.2042 44.9241C50.1965 42.9164 46.9493 42.9164 44.9416 44.9241C42.9339 46.9318 42.9339 50.179 44.9416 52.1867C46.9493 54.1944 50.1965 54.1944 52.2042 52.1867C54.2119 50.179 54.2119 46.9318 52.2042 44.9241ZM73.9221 66.642C71.9144 64.6343 68.6672 64.6343 66.6595 66.642C64.6518 68.6497 64.6518 71.8969 66.6595 73.9046C68.6672 75.9123 71.9144 75.9123 73.9221 73.9046C75.9298 71.8969 75.9298 68.6497 73.9221 66.642ZM95.64 88.3599C93.6323 86.3522 90.3851 86.3522 88.3774 88.3599C86.3698 90.3676 86.3698 93.6149 88.3774 95.6226C90.3851 97.6302 93.6323 97.6302 95.64 95.6226C97.6303 93.6149 97.6303 90.3676 95.64 88.3599ZM117.358 110.078C115.35 108.07 112.103 108.07 110.095 110.078C108.088 112.086 108.088 115.333 110.095 117.34C112.103 119.348 115.35 119.348 117.358 117.34C119.348 115.333 119.348 112.086 117.358 110.078ZM139.058 131.796C137.051 129.788 133.803 129.788 131.796 131.796C129.788 133.803 129.788 137.051 131.796 139.058C133.803 141.066 137.051 141.066 139.058 139.058C141.066 137.051 141.066 133.803 139.058 131.796ZM30.4863 66.642C28.4786 64.6343 25.2314 64.6343 23.2237 66.642C21.216 68.6497 21.216 71.8969 23.2237 73.9046C25.2314 75.9123 28.4786 75.9123 30.4863 73.9046C32.494 71.8969 32.494 68.6497 30.4863 66.642ZM52.2042 88.3599C50.1965 86.3522 46.9493 86.3522 44.9416 88.3599C42.9339 90.3676 42.9339 93.6149 44.9416 95.6226C46.9493 97.6302 50.1965 97.6302 52.2042 95.6226C54.2119 93.6149 54.2119 90.3676 52.2042 88.3599ZM73.9221 110.078C71.9144 108.07 68.6672 108.07 66.6595 110.078C64.6518 112.086 64.6518 115.333 66.6595 117.34C68.6672 119.348 71.9144 119.348 73.9221 117.34C75.9298 115.333 75.9298 112.086 73.9221 110.078ZM95.64 131.796C93.6323 129.788 90.3851 129.788 88.3774 131.796C86.3698 133.803 86.3698 137.051 88.3774 139.058C90.3851 141.066 93.6323 141.066 95.64 139.058C97.6303 137.051 97.6303 133.803 95.64 131.796ZM117.358 153.514C115.35 151.506 112.103 151.506 110.095 153.514C108.088 155.521 108.088 158.769 110.095 160.776C112.103 162.784 115.35 162.784 117.358 160.776C119.348 158.769 119.348 155.521 117.358 153.514ZM8.76835 88.3599C6.76067 86.3522 3.51345 86.3522 1.50576 88.3599C-0.501921 90.3676 -0.501921 93.6149 1.50576 95.6226C3.51345 97.6302 6.76067 97.6302 8.76835 95.6226C10.776 93.6149 10.776 90.3676 8.76835 88.3599ZM30.4863 110.078C28.4786 108.07 25.2314 108.07 23.2237 110.078C21.216 112.086 21.216 115.333 23.2237 117.34C25.2314 119.348 28.4786 119.348 30.4863 117.34C32.494 115.333 32.494 112.086 30.4863 110.078ZM52.2042 131.796C50.1965 129.788 46.9493 129.788 44.9416 131.796C42.9339 133.803 42.9339 137.051 44.9416 139.058C46.9493 141.066 50.1965 141.066 52.2042 139.058C54.2119 137.051 54.2119 133.803 52.2042 131.796ZM73.9221 153.514C71.9144 151.506 68.6672 151.506 66.6595 153.514C64.6518 155.521 64.6518 158.769 66.6595 160.776C68.6672 162.784 71.9144 162.784 73.9221 160.776C75.9298 158.769 75.9298 155.521 73.9221 153.514ZM95.64 175.232C93.6323 173.224 90.3851 173.224 88.3774 175.232C86.3698 177.239 86.3698 180.487 88.3774 182.494C90.3851 184.502 93.6323 184.502 95.64 182.494C97.6477 180.487 97.6303 177.239 95.64 175.232Z" fill="#DA5077"/>
</svg>
