<svg width="17" height="20" viewBox="0 0 17 20" fill="none" xmlns="http://www.w3.org/2000/svg">
<path d="M13.802 7.05882H11.9315V1.17647C11.9315 0.529412 11.402 0 10.755 0H6.0491C5.40204 0 4.87263 0.529412 4.87263 1.17647V7.05882H3.00204C1.95498 7.05882 1.42557 8.32941 2.16675 9.07059L7.56675 14.4706C8.02557 14.9294 8.76675 14.9294 9.22557 14.4706L14.6256 9.07059C15.3667 8.32941 14.8491 7.05882 13.802 7.05882ZM0.166748 18.8235C0.166748 19.4706 0.69616 20 1.34322 20H15.4609C16.1079 20 16.6373 19.4706 16.6373 18.8235C16.6373 18.1765 16.1079 17.6471 15.4609 17.6471H1.34322C0.69616 17.6471 0.166748 18.1765 0.166748 18.8235Z" fill="#004994"/>
</svg>

