<svg width="22" height="25" viewBox="0 0 22 25" fill="none" xmlns="http://www.w3.org/2000/svg">
<path d="M15.5957 15.6555L10.9375 20.3137L6.2793 15.6555C2.78809 15.8069 0 18.6633 0 22.1887V22.6575C0 23.9514 1.0498 25.0012 2.34375 25.0012H19.5312C20.8252 25.0012 21.875 23.9514 21.875 22.6575V22.1887C21.875 18.6633 19.0869 15.8069 15.5957 15.6555ZM0.664062 3.89771L0.976562 3.97095V6.82251C0.634766 7.02759 0.390625 7.38403 0.390625 7.81372C0.390625 8.22388 0.615234 8.56567 0.932617 8.77563L0.170898 11.8176C0.0878906 12.1545 0.273438 12.5012 0.541992 12.5012H2.58301C2.85156 12.5012 3.03711 12.1545 2.9541 11.8176L2.19238 8.77563C2.50977 8.56567 2.73438 8.22388 2.73438 7.81372C2.73438 7.38403 2.49023 7.02759 2.14844 6.82251V4.25415L5.37109 5.03052C4.95117 5.87036 4.6875 6.80786 4.6875 7.81372C4.6875 11.2659 7.48535 14.0637 10.9375 14.0637C14.3896 14.0637 17.1875 11.2659 17.1875 7.81372C17.1875 6.80786 16.9287 5.87036 16.5039 5.03052L21.2061 3.89771C22.0947 3.68286 22.0947 2.57446 21.2061 2.35962L11.9092 0.113525C11.2744 -0.0378418 10.6055 -0.0378418 9.9707 0.113525L0.664062 2.35474C-0.219727 2.56958 -0.219727 3.68286 0.664062 3.89771Z" fill="white"/>
</svg>
