<svg width="128" height="128" viewBox="0 0 128 128" fill="none" xmlns="http://www.w3.org/2000/svg">
<circle cx="64" cy="64" r="64" fill="url(#paint0_linear_104_3)"/>
<path d="M30.0436 94.0903L24.0952 99.256C23.3966 99.8627 23.8256 101.011 24.7508 101.011H32.2255C32.4909 101.011 32.7454 100.906 32.9329 100.718L34.5072 99.1422C34.8774 98.7717 34.899 98.1782 34.5566 97.7818L31.4561 94.1917C31.0944 93.7729 30.4614 93.7275 30.0436 94.0903Z" fill="#FFC03F"/>
<path d="M37.976 68.2286C37.5569 67.8095 37.3474 67.6 37.2746 67.3607C37.2106 67.1504 37.2177 66.925 37.2948 66.7191C37.3824 66.4849 37.6047 66.289 38.0493 65.897L76.963 31.5916C77.1561 31.4214 77.2527 31.3362 77.3366 31.2646C82.8671 26.5419 91.0926 26.8401 96.2665 31.9509C96.3451 32.0285 96.4352 32.1204 96.6155 32.3042C96.7922 32.4843 96.8806 32.5744 96.9555 32.6532C101.886 37.8384 102.113 45.907 97.4824 51.3614C97.412 51.4443 97.3289 51.5392 97.1626 51.729L83.1592 67.7127L68.9213 84.0174L63.0722 90.4716C62.5759 91.0192 61.8116 91.2374 61.101 91.0344C60.8072 90.9505 60.5375 90.7984 60.3136 90.5905L57.4391 87.9214L50.3202 80.5728L37.976 68.2286Z" fill="#FFC03F"/>
<path d="M30.655 94.8578C30.2004 94.4249 30.0976 93.7386 30.4054 93.1915C31.4321 91.3663 32.2823 89.4473 32.9445 87.4606L33.9667 84.3941C33.9993 84.2964 34.0209 84.1953 34.0311 84.0928L34.3555 80.8487C34.5877 78.5272 34.5877 76.1883 34.3555 73.8668L34.2453 72.7647C34.0972 71.2837 34.4882 69.799 35.3466 68.5831C36.0884 67.5321 37.601 67.4099 38.502 68.328L60.5159 90.7613C60.7518 91.0017 60.884 91.3251 60.884 91.662L60.884 91.9995C60.884 92.3291 60.7531 92.6452 60.52 92.8782C59.58 93.8182 58.2932 94.3278 56.9645 94.2863L51.6983 94.1217L50.1294 94.16C44.9803 94.2856 39.9445 95.6977 35.4808 98.2677C35.0205 98.5327 34.4407 98.4632 34.056 98.0969L30.655 94.8578Z" fill="#0C4B5C"/>
<path d="M56.4314 86.6909L42.3452 72.3797C41.9408 71.9689 41.2718 71.9912 40.8958 72.4281L39.6401 73.8872C38.781 74.8855 38.2699 76.1361 38.184 77.4504C38.0092 80.1242 37.3738 82.7478 36.3059 85.2054L35.8191 86.3255L34.6379 88.5018C33.5164 90.5681 32.2497 92.5522 30.8473 94.4392C30.6901 94.6507 30.7169 94.9466 30.9096 95.1264L33.7534 97.7806C33.9051 97.9223 34.1367 97.9341 34.3021 97.8088L35.3786 96.9933C39.4784 93.8874 44.1738 91.6592 49.1724 90.4474L52.6892 90.0517C54.2156 89.88 55.6014 89.0799 56.5133 87.8438C56.7731 87.4916 56.7384 87.0028 56.4314 86.6909Z" fill="#0E4353"/>
<path d="M51.239 69.5256C51.239 66.6287 52.517 63.8794 54.7315 62.0118L81.4155 39.5097C81.8104 39.1766 82.2532 38.9049 82.7289 38.7037C86.9221 36.9297 91.1858 41.0701 89.5356 45.3134L89.4328 45.5778C89.2326 46.0927 88.945 46.5692 88.5828 46.9864L66.2441 72.7158C64.4286 74.8069 61.8611 76.0968 59.0997 76.3052L58.591 76.3436C54.6233 76.6431 51.239 73.5046 51.239 69.5256Z" fill="#FDD682"/>
<defs>
<linearGradient id="paint0_linear_104_3" x1="59.2" y1="35.7333" x2="160.533" y2="215.467" gradientUnits="userSpaceOnUse">
<stop stop-color="white"/>
<stop offset="0.963537" stop-color="#F4D085"/>
</linearGradient>
</defs>
</svg>
