<svg width="40" height="40" viewBox="0 0 40 40" fill="none" xmlns="http://www.w3.org/2000/svg">
<rect width="40" height="40" rx="20" fill="#EFEFEF"/>
<path d="M27.5 27.5C27.9973 27.5 28.4742 27.3025 28.8258 26.9508C29.1775 26.5992 29.375 26.1223 29.375 25.625V21.0462C29.375 20.549 29.1775 20.0721 28.8258 19.7204C28.4742 19.3688 27.9973 19.1713 27.5 19.1713H24.8975C24.8975 18.5131 24.9369 17.8531 25.0138 17.195C25.13 16.4975 25.325 15.8769 25.595 15.335C25.8669 14.7913 26.2156 14.3656 26.6431 14.0544C27.0688 13.7056 27.6106 13.5313 28.2706 13.5313V10.625C27.185 10.625 26.2363 10.8575 25.4206 11.3225C24.6121 11.7828 23.917 12.4183 23.3863 13.1825C22.8536 14.025 22.461 14.9482 22.2238 15.9163C21.9847 16.9846 21.8677 18.0765 21.875 19.1713V25.625C21.875 26.1223 22.0726 26.5992 22.4242 26.9508C22.7758 27.3025 23.2527 27.5 23.75 27.5H27.5ZM16.25 27.5C16.7473 27.5 17.2242 27.3025 17.5758 26.9508C17.9275 26.5992 18.125 26.1223 18.125 25.625V21.0462C18.125 20.549 17.9275 20.0721 17.5758 19.7204C17.2242 19.3688 16.7473 19.1713 16.25 19.1713H13.6475C13.6475 18.5131 13.6869 17.8531 13.7638 17.195C13.88 16.4975 14.075 15.8769 14.345 15.335C14.6169 14.7913 14.9656 14.3656 15.3931 14.0544C15.8188 13.7056 16.3606 13.5313 17.0206 13.5313V10.625C15.935 10.625 14.9863 10.8575 14.1706 11.3225C13.3621 11.7828 12.667 12.4183 12.1363 13.1825C11.6036 14.025 11.211 14.9482 10.9738 15.9163C10.7347 16.9846 10.6177 18.0765 10.625 19.1713V25.625C10.625 26.1223 10.8226 26.5992 11.1742 26.9508C11.5258 27.3025 12.0027 27.5 12.5 27.5H16.25Z" fill="#9E9E9E"/>
</svg>
