<svg width="15" height="15" viewBox="0 0 15 15" fill="none" xmlns="http://www.w3.org/2000/svg">
<path d="M4.96217 1.53376C4.78642 1.70957 4.68768 1.94799 4.68768 2.19658C4.68768 2.44517 4.78642 2.68358 4.96217 2.85939L9.6028 7.50001L4.96217 12.1406C4.7914 12.3175 4.6969 12.5543 4.69904 12.8001C4.70117 13.0459 4.79977 13.281 4.97359 13.4548C5.14741 13.6287 5.38255 13.7273 5.62836 13.7294C5.87417 13.7315 6.11098 13.637 6.2878 13.4663L11.5912 8.16283C11.767 7.98702 11.8657 7.74861 11.8657 7.50001C11.8657 7.25142 11.767 7.01301 11.5912 6.8372L6.2878 1.53376C6.11199 1.35801 5.87357 1.25928 5.62498 1.25928C5.37639 1.25928 5.13798 1.35801 4.96217 1.53376Z" fill="#2B2B2B"/>
</svg>
