<svg width="20" height="20" viewBox="0 0 20 20" fill="none" xmlns="http://www.w3.org/2000/svg">
<path d="M16.8467 5.34583L16.7367 4.79083C16.6375 4.2925 16.4133 3.82166 15.9025 3.64166C15.7383 3.58416 15.5525 3.56 15.4275 3.44083C15.3008 3.32166 15.2642 3.13583 15.235 2.96416C15.1808 2.64916 15.1308 2.33416 15.075 2.02C15.0275 1.74916 14.99 1.445 14.8667 1.1975C14.7042 0.864165 14.3692 0.669165 14.0367 0.540831C13.866 0.477022 13.6918 0.423045 13.515 0.379165C12.6817 0.159998 11.8067 0.0791646 10.9508 0.0324979C9.92313 -0.0240072 8.89271 -0.00674071 7.86749 0.0841646C7.10499 0.153331 6.30083 0.237498 5.57583 0.500831C5.31083 0.597498 5.03749 0.714165 4.83583 0.918331C4.58833 1.17 4.50833 1.56 4.68833 1.87333C4.81666 2.09583 5.03416 2.25333 5.26499 2.35666C5.56499 2.49166 5.87916 2.59333 6.20083 2.66166C7.09666 2.86 8.02499 2.9375 8.93999 2.97C9.95499 3.01166 10.9708 2.97833 11.9817 2.87166C12.2308 2.84416 12.48 2.81083 12.7283 2.7725C13.0217 2.7275 13.21 2.345 13.1233 2.0775C13.02 1.75833 12.7425 1.635 12.4283 1.68333C12.04 1.745 11.6283 1.77333 11.2767 1.805C10.2958 1.87166 9.31166 1.87333 8.32999 1.81C8.00788 1.78868 7.68638 1.75895 7.36583 1.72083C7.29416 1.7125 7.21583 1.7 7.15083 1.69083C6.94833 1.66083 6.74749 1.62416 6.54749 1.5825C6.45499 1.56 6.45499 1.42833 6.54749 1.40583H6.55166C6.78249 1.35583 7.01583 1.31583 7.24999 1.28333H7.25166C7.36083 1.27583 7.47083 1.25666 7.57999 1.24333C8.52826 1.14491 9.48216 1.1115 10.435 1.14333C10.9967 1.15916 11.5575 1.19916 12.1158 1.26333L12.3058 1.28916C12.5283 1.3225 12.75 1.3625 12.9708 1.41C13.2975 1.48083 13.7167 1.50416 13.8625 1.86166C13.9083 1.97583 13.9292 2.10166 13.955 2.22083L14.2208 3.4575C14.2265 3.48401 14.2266 3.51141 14.2212 3.53797C14.2158 3.56454 14.2049 3.5897 14.1894 3.6119C14.1738 3.6341 14.1539 3.65286 14.1308 3.66702C14.1076 3.68117 14.0818 3.69041 14.055 3.69416H14.0525C14.0217 3.69916 13.99 3.7025 13.9592 3.70666C12.6484 3.8739 11.3281 3.95602 10.0067 3.9525C8.69733 3.95115 7.38941 3.86653 6.09083 3.69916C5.97416 3.685 5.84666 3.66416 5.74333 3.64916C5.47166 3.60916 5.20249 3.55916 4.93249 3.515C4.60499 3.46083 4.29249 3.48833 3.99666 3.64916C3.75499 3.7825 3.55749 3.98583 3.43416 4.23333C3.30583 4.49666 3.26833 4.78333 3.21166 5.06666C3.15416 5.35 3.06499 5.65583 3.09916 5.94666C3.17166 6.57416 3.60999 7.08416 4.24083 7.19833C7.36038 7.75505 10.5438 7.86057 13.6933 7.51166C13.7532 7.50486 13.8138 7.51156 13.8707 7.53129C13.9276 7.55101 13.9793 7.58326 14.0221 7.62564C14.0649 7.66802 14.0976 7.71947 14.1179 7.77618C14.1381 7.8329 14.1454 7.89343 14.1392 7.95333L14.08 8.53416L13.2317 16.79C13.1975 17.1317 13.1925 17.4833 13.1275 17.8208C13.0258 18.3517 12.6667 18.6775 12.1425 18.7967C11.6617 18.9058 11.1717 18.9633 10.6792 18.9675C10.1325 18.9708 9.58749 18.9467 9.04083 18.9492C8.45833 18.9525 7.74416 18.8992 7.29499 18.4658C6.89916 18.0842 6.84499 17.4875 6.79083 16.9717L6.18166 11.1275L5.91333 8.54916C5.88249 8.25666 5.67499 7.97 5.34833 7.98416C5.06833 7.99666 4.74999 8.23416 4.78333 8.55L4.97333 10.3708L5.76416 17.9642C5.88666 19.0842 6.74249 19.6875 7.80249 19.8575C8.42083 19.9575 9.05499 19.9775 9.68333 19.9875C10.4883 20.0008 11.3017 20.0317 12.0933 19.8858C13.2667 19.6708 14.1475 18.8875 14.2733 17.6717C14.5567 14.895 14.8425 12.1192 15.1267 9.3425L15.3058 7.60333C15.3147 7.51709 15.351 7.43598 15.4096 7.37204C15.4681 7.3081 15.5457 7.26472 15.6308 7.24833C15.9658 7.18333 16.2867 7.07166 16.5258 6.81666C16.905 6.41 16.9808 5.88083 16.8467 5.34583ZM15.615 5.98916C15.4942 6.10333 15.3125 6.15666 15.1333 6.18333C13.12 6.4825 11.0783 6.63333 9.04333 6.56666C7.58666 6.51666 6.14583 6.355 4.70416 6.15166C4.56249 6.13166 4.40999 6.10583 4.31249 6.00166C4.12916 5.805 4.21999 5.41 4.26749 5.1725C4.31083 4.95583 4.39416 4.665 4.65333 4.63416C5.05666 4.58666 5.52499 4.7575 5.92499 4.8175C6.40583 4.89083 6.88833 4.95 7.37249 4.99416C9.43916 5.1825 11.5408 5.1525 13.5992 4.8775C13.9742 4.8275 14.3483 4.76916 14.72 4.7025C15.0525 4.6425 15.42 4.53083 15.62 4.87416C15.7583 5.10833 15.7767 5.42166 15.755 5.68583C15.7484 5.8012 15.698 5.9097 15.6142 5.98916H15.615ZM10.4825 9.23916C9.76416 9.5475 8.94916 9.89583 7.89166 9.89583C7.44967 9.89476 7.00985 9.83393 6.58416 9.715L7.31499 17.2183C7.36916 17.8683 7.91249 18.3683 8.56499 18.3683C8.56499 18.3683 9.60083 18.4225 9.94666 18.4225C10.3192 18.4225 11.435 18.3683 11.435 18.3683C12.0875 18.3683 12.63 17.8683 12.6842 17.2183L13.4675 8.92666C13.1141 8.79886 12.7416 8.7318 12.3658 8.72833C11.6775 8.72833 11.1233 8.965 10.4825 9.23916Z" fill="#2B2B2B"/>
</svg>
